<?xml version="1.0" standalone="no"?>
<!DOCTYPE svg PUBLIC "-//W3C//DTD SVG 20010904//EN"
 "http://www.w3.org/TR/2001/REC-SVG-20010904/DTD/svg10.dtd">
<svg version="1.0" xmlns="http://www.w3.org/2000/svg"
 width="1024.000000pt" height="1024.000000pt" viewBox="0 0 1024.000000 1024.000000"
 preserveAspectRatio="xMidYMid meet">

<g transform="translate(0.000000,1024.000000) scale(0.100000,-0.100000)"
fill="#2a7d2e" stroke="none">
<path d="M4790 10209 c-41 -4 -122 -10 -180 -14 -58 -3 -143 -13 -190 -20 -47
-8 -105 -17 -130 -20 -95 -11 -418 -79 -455 -95 -11 -5 -51 -16 -90 -25 -38
-10 -91 -26 -118 -36 -26 -10 -55 -19 -65 -19 -9 0 -39 -11 -67 -25 -27 -13
-56 -25 -63 -25 -8 0 -57 -18 -109 -40 -53 -22 -101 -40 -107 -40 -5 0 -75
-31 -155 -69 -81 -38 -177 -81 -216 -96 -72 -29 -278 -141 -356 -193 -24 -17
-71 -45 -104 -62 -203 -110 -635 -473 -893 -750 -758 -814 -1242 -1791 -1437
-2900 -47 -266 -57 -929 -19 -1215 8 -60 19 -146 25 -190 5 -44 16 -114 24
-155 7 -41 21 -115 30 -165 59 -318 195 -729 362 -1089 345 -745 892 -1422
1554 -1921 1239 -934 2831 -1258 4337 -884 991 246 1913 802 2577 1553 72 81
132 153 134 159 2 7 22 32 45 57 40 44 81 100 253 350 209 302 365 608 541
1060 74 189 156 476 211 738 41 194 54 286 72 500 6 70 12 143 14 162 24 223
9 799 -27 1040 -11 74 -24 167 -29 205 -6 39 -26 129 -44 200 -19 72 -37 155
-41 185 -9 71 -96 337 -180 548 -221 557 -520 1062 -896 1514 -136 164 -360
401 -410 435 -23 15 -66 53 -97 83 -31 31 -76 71 -100 90 -25 19 -61 49 -82
65 -20 17 -89 68 -153 115 -65 47 -136 100 -159 117 -23 18 -53 38 -67 44 -14
6 -34 18 -45 28 -68 61 -584 334 -790 418 -160 65 -668 229 -810 261 -228 52
-409 83 -600 103 -255 25 -725 35 -895 18z m-1754 -1785 c22 -14 50 -41 63
-59 21 -31 66 -202 172 -652 l34 -143 2174 0 c1692 0 2183 -3 2215 -12 55 -17
131 -91 145 -143 18 -68 33 10 -175 -920 -36 -159 -101 -452 -145 -650 -44
-198 -96 -432 -115 -520 -67 -299 -157 -428 -351 -501 -61 -23 -140 -33 -773
-94 -388 -38 -865 -85 -1060 -105 -416 -43 -416 -43 -895 -90 -292 -29 -375
-40 -395 -54 -28 -19 -94 -135 -110 -194 -21 -73 16 -143 95 -178 38 -18 108
-19 1593 -19 1506 0 1554 -1 1590 -19 48 -25 77 -57 92 -105 28 -87 -13 -186
-92 -225 -39 -18 -63 -21 -194 -22 -138 0 -146 -1 -111 -14 63 -23 144 -84
196 -146 123 -147 167 -333 122 -512 -35 -134 -100 -234 -205 -314 -142 -107
-310 -141 -487 -98 -119 29 -256 132 -328 243 -157 246 -86 607 151 775 35 24
77 49 93 55 21 7 -265 11 -1004 11 l-1034 1 64 -32 c84 -42 194 -152 233 -233
126 -259 67 -553 -144 -719 -105 -82 -207 -116 -351 -116 -157 0 -279 50 -389
160 -110 110 -163 238 -164 395 -1 232 124 438 318 526 l41 19 -56 0 c-136 0
-338 171 -393 332 -29 87 -37 172 -26 265 14 109 47 193 121 309 33 50 59 98
59 107 0 18 -194 804 -573 2320 l-251 1007 -351 0 c-344 0 -352 0 -395 23 -26
13 -57 40 -75 65 -26 38 -30 52 -30 111 0 57 4 74 27 109 16 23 45 50 65 61
36 19 59 20 503 21 l466 0 40 -26z"/>
<path d="M3415 7133 c8 -32 44 -179 80 -328 36 -148 77 -319 91 -379 14 -61
27 -114 30 -118 3 -4 169 -8 370 -8 l364 0 -5 38 c-3 20 -12 102 -20 182 -50
490 -65 637 -65 653 0 16 -27 17 -429 17 l-429 0 13 -57z"/>
<path d="M4613 7133 c4 -32 20 -188 36 -348 17 -159 36 -334 42 -387 l11 -98
294 0 294 0 0 445 0 445 -341 0 -342 0 6 -57z"/>
<path d="M5645 6745 l0 -445 297 0 297 0 6 43 c3 23 25 211 50 417 25 206 47
387 50 403 l5 27 -353 0 -352 0 0 -445z"/>
<path d="M6690 7185 c0 -3 -20 -168 -44 -367 -25 -200 -49 -398 -54 -441 l-8
-77 330 2 329 3 18 80 c90 416 171 782 174 793 3 9 -75 12 -370 12 -206 0
-375 -2 -375 -5z"/>
<path d="M3710 5925 c0 -9 40 -178 190 -798 32 -131 60 -241 63 -244 6 -6 514
39 526 47 5 3 -13 214 -40 470 -27 256 -49 480 -49 497 l0 32 -345 3 c-225 2
-345 0 -345 -7z"/>
<path d="M4746 5933 c-1 -1 21 -219 49 -485 l51 -483 44 4 c25 2 124 11 220
20 l175 16 3 465 2 465 -271 0 c-149 0 -272 -1 -273 -2z"/>
<path d="M5650 5930 c0 -3 0 -202 -1 -443 -1 -241 1 -440 3 -442 2 -3 96 4
209 15 112 11 211 20 220 20 12 0 19 29 33 158 10 86 30 263 46 392 16 129 30
250 32 268 l3 33 -273 2 c-149 1 -272 0 -272 -3z"/>
<path d="M6544 5925 c-5 -14 -100 -805 -97 -808 1 -2 107 7 235 19 163 16 242
27 264 39 39 21 69 73 84 150 6 33 36 170 65 305 29 135 56 259 59 275 l6 30
-306 0 c-195 0 -308 -4 -310 -10z"/>
<path d="M3999 3383 c-80 -41 -113 -93 -117 -187 -3 -60 0 -81 18 -117 40 -79
118 -129 202 -129 129 1 228 100 228 230 0 175 -174 282 -331 203z"/>
<path d="M6475 3391 c-142 -65 -180 -248 -77 -363 73 -81 174 -100 271 -52
100 50 148 159 118 265 -41 138 -186 208 -312 150z"/>
</g>
</svg>
