<?xml version="1.0" standalone="no"?>
<!DOCTYPE svg PUBLIC "-//W3C//DTD SVG 20010904//EN"
 "http://www.w3.org/TR/2001/REC-SVG-20010904/DTD/svg10.dtd">
<svg version="1.0" xmlns="http://www.w3.org/2000/svg"
 width="1024.000000pt" height="1024.000000pt" viewBox="0 0 1024.000000 1024.000000"
 preserveAspectRatio="xMidYMid meet">

<g transform="translate(0.000000,1024.000000) scale(0.100000,-0.100000)"
fill="#2a7d2e" stroke="none">
<path d="M4870 8225 c-208 -18 -545 -81 -574 -107 -6 -4 -21 -8 -33 -8 -74 0
-607 -230 -753 -325 -196 -127 -327 -218 -389 -273 -30 -26 -80 -67 -110 -90
-67 -52 -250 -236 -277 -278 -10 -16 -32 -40 -47 -53 -97 -82 -373 -518 -425
-671 -11 -30 -36 -88 -56 -127 -20 -40 -36 -84 -36 -97 0 -14 -5 -28 -10 -31
-6 -3 -10 -14 -10 -25 0 -10 -15 -58 -34 -106 -38 -98 -85 -308 -97 -424 -4
-41 -13 -111 -20 -155 -20 -126 -18 -591 4 -735 24 -155 64 -360 89 -445 11
-38 23 -83 28 -100 64 -226 228 -574 377 -796 26 -40 59 -89 73 -110 29 -43
200 -247 275 -328 46 -49 177 -166 300 -267 72 -59 357 -243 460 -297 75 -40
305 -142 350 -157 22 -7 45 -16 50 -20 6 -4 60 -23 120 -42 772 -246 1529
-215 2255 90 253 106 525 270 745 450 111 90 369 354 414 421 20 31 51 72 68
91 18 19 33 38 33 42 0 4 6 13 13 20 7 7 25 34 39 59 15 25 47 68 73 97 51 57
186 299 229 413 15 41 39 99 53 129 14 30 29 66 33 80 125 394 168 625 177
950 5 188 1 251 -31 530 -22 192 -64 376 -125 554 -17 49 -31 97 -31 106 0 10
-7 23 -15 30 -8 7 -22 38 -31 69 -18 63 -26 83 -99 231 -46 94 -74 144 -113
205 -6 11 -17 29 -22 40 -6 11 -26 40 -45 65 -19 25 -53 72 -75 105 -99 147
-359 432 -480 526 -24 18 -60 49 -80 66 -19 18 -54 42 -77 53 -24 11 -49 29
-55 40 -15 24 -144 114 -179 125 -13 4 -33 15 -44 25 -11 10 -49 34 -85 52
-36 19 -83 46 -105 61 -22 15 -44 27 -48 27 -5 0 -41 16 -81 35 -211 102 -455
178 -726 228 -350 63 -557 76 -840 52z m1530 -953 c14 -11 34 -34 45 -53 20
-33 20 -58 26 -1434 6 -1303 14 -1738 39 -2270 8 -174 7 -222 -5 -278 -39
-182 -162 -299 -315 -300 -140 -1 -252 97 -296 260 -16 61 -17 81 -5 257 13
203 50 702 77 1051 10 116 14 227 10 248 -9 50 -46 90 -110 120 -114 54 -162
124 -175 254 -14 137 13 727 45 983 39 320 134 645 271 929 90 188 189 268
318 256 27 -3 61 -13 75 -23z m-2326 -10 c50 -46 49 -31 50 -727 2 -698 1
-686 53 -720 32 -21 97 -21 129 0 54 35 54 31 54 727 0 620 1 644 20 675 35
58 103 85 150 61 13 -7 35 -29 47 -47 l23 -34 0 -654 c0 -705 -1 -690 52 -727
12 -9 42 -16 66 -16 37 0 50 6 78 34 31 31 34 40 35 92 0 33 2 329 2 659 2
568 3 602 21 638 12 23 32 45 52 54 30 15 37 15 78 -1 62 -24 112 -84 126
-150 10 -52 40 -905 40 -1141 -1 -161 -18 -260 -63 -365 -49 -112 -91 -179
-167 -267 -205 -235 -206 -237 -203 -393 2 -63 21 -459 44 -880 22 -421 38
-790 35 -821 -9 -94 -43 -167 -111 -236 -48 -49 -71 -64 -114 -77 -68 -20 -94
-20 -161 0 -101 30 -166 89 -214 195 -53 115 -55 48 43 1727 4 79 5 163 0 187
-13 71 -52 134 -144 235 -104 115 -143 172 -200 293 -88 184 -94 266 -71 932
21 608 24 645 63 693 37 47 109 85 143 77 14 -4 33 -14 44 -23z"/>
</g>
</svg>
