<?xml version="1.0" standalone="no"?>
<!DOCTYPE svg PUBLIC "-//W3C//DTD SVG 20010904//EN"
 "http://www.w3.org/TR/2001/REC-SVG-20010904/DTD/svg10.dtd">
<svg version="1.0" xmlns="http://www.w3.org/2000/svg"
 width="1024.000000pt" height="1024.000000pt" viewBox="0 0 1024.000000 1024.000000"
 preserveAspectRatio="xMidYMid meet">

<g transform="translate(0.000000,1024.000000) scale(0.100000,-0.100000)"
fill="#2a7d2e" stroke="none">
<path d="M4831 9359 c-838 -53 -1664 -363 -2306 -864 -867 -677 -1404 -1556
-1599 -2616 -41 -223 -58 -445 -58 -734 0 -274 10 -422 43 -645 174 -1161 856
-2223 1854 -2887 579 -385 1203 -607 1937 -690 210 -23 663 -23 878 1 532 58
968 185 1422 413 379 190 752 456 1067 759 881 848 1335 1956 1297 3164 -22
667 -162 1223 -456 1805 -209 415 -443 737 -779 1075 -247 247 -493 439 -803
626 -756 454 -1586 651 -2497 593z m669 -20 c855 -59 1701 -409 2385 -987 107
-91 439 -421 431 -429 -3 -3 -28 19 -55 48 -28 30 -57 54 -64 54 -6 1 -11 6
-10 12 4 18 -318 325 -334 319 -8 -3 -12 -2 -8 3 7 13 -45 52 -58 44 -5 -3 -7
-1 -4 4 4 6 -10 23 -31 39 -20 15 -40 32 -43 37 -4 5 -12 6 -19 2 -8 -5 -11
-4 -7 2 11 18 -432 313 -469 313 -7 0 -14 4 -16 8 -6 15 -139 82 -150 76 -6
-4 -8 -3 -5 3 6 10 -122 73 -149 73 -8 0 -14 5 -14 11 0 6 -6 9 -12 7 -7 -3
-18 1 -25 8 -16 16 -316 134 -341 134 -10 0 -22 4 -28 10 -13 13 -203 70 -234
70 -15 0 -30 4 -35 9 -9 8 -102 30 -305 71 -25 5 -88 14 -140 20 -52 6 -133
15 -180 21 -94 11 -446 29 -464 24 -6 -2 -87 -6 -181 -10 -93 -3 -201 -10
-240 -16 -38 -5 -90 -11 -115 -13 -144 -12 -434 -67 -486 -92 -18 -9 -37 -13
-42 -10 -27 17 -661 -201 -648 -223 2 -3 -6 -7 -18 -7 -77 -5 -697 -359 -679
-388 4 -5 1 -6 -4 -3 -24 15 -411 -293 -396 -315 3 -7 1 -8 -6 -4 -11 7 -37
-16 -191 -166 -108 -105 -200 -209 -194 -219 3 -5 2 -8 -3 -7 -19 7 -183 -196
-303 -375 -90 -134 -123 -169 -44 -46 259 402 709 862 1125 1150 673 466 1422
713 2264 749 183 8 316 5 545 -11z m-180 -378 c57 -6 12 -7 -140 -5 -489 5
-894 -58 -1310 -204 -63 -22 -124 -43 -135 -47 l-20 -7 20 13 c76 50 564 185
765 213 299 41 608 55 820 37z m343 -31 c80 -11 179 -26 219 -35 40 -8 77 -15
82 -15 5 0 7 -2 4 -6 -3 -3 -43 2 -89 10 -46 9 -97 18 -114 21 -35 6 -262 33
-320 38 -32 3 -28 4 16 5 31 1 122 -7 202 -18z m-228 0 c773 -65 1479 -346
2080 -827 151 -121 440 -411 563 -565 406 -510 700 -1142 811 -1743 167 -898
-27 -1880 -525 -2665 -397 -628 -1002 -1156 -1669 -1458 -657 -298 -1395 -404
-2120 -306 -652 89 -1323 383 -1845 809 -835 682 -1330 1606 -1419 2650 -14
155 -14 518 -1 665 88 965 581 1900 1351 2562 423 363 987 649 1551 787 172
42 405 79 593 94 98 8 521 6 630 -3z m646 -79 c41 -11 119 -33 173 -50 93 -29
125 -40 297 -105 78 -29 381 -176 489 -237 41 -24 137 -84 214 -136 76 -51
143 -90 149 -86 6 3 7 1 4 -4 -8 -13 82 -85 95 -77 4 3 7 1 6 -4 -2 -6 24 -31
57 -57 67 -52 80 -64 255 -237 69 -67 143 -144 164 -170 21 -26 43 -45 49 -41
6 3 7 1 3 -5 -3 -6 7 -26 22 -44 57 -65 219 -285 266 -360 26 -43 52 -76 56
-73 5 3 12 0 16 -6 4 -8 3 -9 -4 -5 -19 11 -15 3 32 -77 86 -146 190 -346 184
-353 -3 -2 -33 51 -67 118 -256 500 -617 949 -1027 1278 -121 97 -377 272
-489 334 -27 16 -68 39 -90 51 -182 103 -541 246 -805 320 -154 44 -191 63
-49 26z m-2371 -155 c0 -2 -21 -11 -47 -21 -79 -29 -401 -190 -498 -248 -289
-172 -539 -370 -775 -613 -360 -370 -616 -756 -825 -1247 -21 -48 -39 -86 -41
-84 -14 13 186 426 295 610 93 157 218 336 319 457 169 203 285 322 500 512
144 128 363 282 564 399 54 31 94 60 90 64 -4 5 -2 5 4 2 7 -4 82 27 169 69
176 85 245 113 245 100z m4728 -916 c15 -19 47 -60 71 -90 50 -62 195 -279
259 -387 187 -317 354 -721 456 -1103 186 -694 173 -1564 -32 -2245 -177 -587
-418 -1031 -830 -1530 -113 -138 -442 -458 -590 -575 -584 -461 -1159 -731
-1837 -860 -107 -21 -247 -37 -170 -21 22 5 73 14 113 21 39 6 70 15 68 19 -3
4 7 6 23 3 50 -7 527 126 656 183 17 8 68 29 115 48 134 55 230 103 222 112
-4 5 -1 5 5 1 14 -8 73 22 73 37 0 4 4 5 10 2 12 -7 150 72 150 86 0 6 5 7 10
4 6 -3 23 3 39 14 16 12 32 21 35 21 11 0 141 87 155 103 7 10 18 17 23 17 10
0 151 96 200 136 15 12 25 25 22 28 -2 3 -1 4 2 1 8 -6 112 75 229 178 129
114 363 355 453 465 42 52 87 108 100 123 13 16 20 34 16 40 -4 7 -3 9 3 6 19
-12 249 315 236 336 -3 7 -3 9 2 5 11 -11 47 50 39 65 -4 7 -4 9 1 5 11 -10
22 7 106 162 106 197 217 465 288 700 18 58 36 117 41 132 5 14 6 29 3 32 -3
3 -1 11 4 18 31 41 102 438 123 695 25 305 -4 1020 -41 997 -5 -3 -9 0 -9 5 0
6 4 11 8 11 5 0 7 15 5 33 -7 49 -43 240 -50 257 -3 8 -5 18 -5 22 5 23 -90
342 -153 513 -70 190 -248 574 -305 655 -10 14 -41 64 -69 113 -29 48 -56 87
-61 87 -6 0 -9 4 -8 9 5 14 -143 222 -153 216 -5 -4 -9 0 -9 8 0 23 -110 158
-122 151 -6 -4 -8 -2 -5 3 4 6 -3 24 -14 39 -27 38 64 -60 99 -106z m-6957
-482 c-21 -35 -54 -92 -73 -128 -19 -36 -42 -78 -51 -95 -48 -88 -86 -178 -81
-188 4 -7 4 -9 -1 -5 -11 10 -25 -19 -89 -181 -101 -255 -148 -412 -225 -761
-11 -47 -20 -77 -20 -68 -2 29 47 247 89 399 68 250 152 472 265 704 81 167
204 385 216 385 4 0 -9 -28 -30 -62z m7158 -643 c0 -5 -6 1 -14 15 -8 14 -14
30 -14 35 0 6 6 -1 14 -15 8 -14 14 -29 14 -35z m67 -145 c102 -251 190 -564
228 -820 29 -196 31 -234 30 -560 -1 -195 -6 -367 -12 -395 -8 -41 -9 -33 -4
50 4 55 7 231 7 390 -1 300 -9 395 -56 645 -38 200 -136 535 -196 670 -41 92
-65 156 -54 145 5 -5 31 -62 57 -125z m-7215 -132 c-17 -47 -31 -89 -31 -94 0
-6 -7 -19 -15 -30 -8 -10 3 32 25 94 22 63 40 116 40 119 0 4 3 4 6 0 3 -3 -8
-43 -25 -89z m-80 -265 c-85 -300 -122 -563 -126 -898 -2 -132 0 -280 5 -330
5 -49 11 -120 15 -156 3 -37 7 -75 9 -85 2 -11 7 -41 10 -69 38 -273 149 -660
269 -935 200 -460 450 -825 821 -1195 314 -314 626 -540 1007 -731 93 -46 171
-84 174 -84 3 0 24 -9 48 -20 97 -44 324 -124 487 -170 131 -38 385 -84 553
-101 64 -7 117 -15 117 -19 0 -9 -149 6 -290 29 -69 11 -141 23 -160 26 -62 9
-292 71 -419 113 -67 22 -128 39 -135 38 -6 -2 -7 -1 -2 2 5 3 -34 22 -88 44
-54 21 -102 35 -108 32 -6 -4 -8 -3 -5 3 8 12 -151 85 -166 76 -5 -3 -7 -2 -4
4 7 11 -130 80 -147 75 -6 -2 -8 0 -4 4 7 6 -95 74 -117 77 -5 1 -12 5 -15 8
-12 15 -155 102 -167 102 -7 0 -11 2 -8 5 2 2 -44 41 -103 85 -114 85 -310
246 -331 271 -7 9 -17 13 -22 10 -5 -3 -8 -2 -7 3 3 9 -161 173 -174 173 -4 0
-8 5 -8 10 0 6 -8 18 -17 28 -10 9 -42 45 -72 79 -29 35 -58 60 -64 56 -6 -4
-7 -1 -2 6 4 8 -4 25 -22 44 -37 39 -130 162 -201 265 -30 42 -58 76 -64 74
-5 -1 -7 2 -4 7 3 5 -32 72 -78 148 -200 331 -345 705 -439 1128 -62 280 -77
416 -84 774 -7 349 26 619 114 945 46 171 45 168 50 162 2 -2 -9 -53 -26 -113z
m-485 -410 c-62 -503 -43 -993 56 -1448 116 -536 320 -1010 632 -1470 100
-149 247 -335 259 -328 6 3 7 1 3 -5 -13 -22 359 -403 514 -527 37 -30 73 -60
81 -67 34 -33 194 -151 304 -224 141 -95 275 -173 433 -253 24 -12 42 -25 39
-27 -14 -15 -428 230 -592 349 -900 658 -1502 1589 -1701 2632 -85 450 -98
1002 -32 1439 19 123 21 71 4 -71z m8011 -1080 c-3 -10 -5 -4 -5 12 0 17 2 24
5 18 2 -7 2 -21 0 -30z m-27 -166 c-24 -126 -69 -314 -95 -397 -54 -169 -77
-236 -91 -259 -9 -15 -12 -18 -9 -6 112 334 157 500 192 705 10 57 19 96 21
87 2 -9 -6 -68 -18 -130z m-223 -759 c-36 -90 -115 -258 -121 -258 -8 0 8 38
47 117 19 37 47 101 62 141 16 39 30 70 33 67 2 -2 -7 -32 -21 -67z m-145
-306 c-31 -70 -105 -200 -129 -229 -23 -27 -23 -25 3 22 15 28 31 55 35 60 10
15 45 78 74 135 30 59 42 67 17 12z m-163 -288 c-7 -9 -18 -24 -24 -33 -5 -10
-20 -33 -32 -51 -12 -19 -19 -38 -16 -43 3 -6 1 -7 -5 -3 -6 3 -21 -11 -33
-31 -13 -21 -33 -49 -46 -63 -46 -52 -102 -138 -95 -145 4 -5 2 -5 -4 -2 -11
6 -131 -130 -126 -145 1 -4 -2 -7 -6 -6 -5 2 -56 -45 -113 -103 -57 -59 -149
-146 -204 -195 -55 -49 -99 -92 -97 -97 1 -5 -1 -6 -6 -3 -5 3 -18 -2 -28 -12
-64 -58 -296 -223 -409 -292 -128 -78 -278 -161 -357 -197 -32 -14 -58 -30
-58 -35 0 -5 -4 -7 -8 -4 -5 3 -19 -1 -33 -8 -40 -21 -206 -86 -218 -86 -7 0
-9 -5 -5 -12 4 -6 3 -8 -3 -5 -6 4 -44 -5 -84 -19 -114 -39 -294 -89 -404
-114 -55 -12 -113 -26 -129 -31 -16 -5 -45 -9 -65 -8 -20 0 43 18 139 38 547
118 1069 355 1495 680 198 150 241 187 418 361 195 190 371 404 522 633 21 31
40 55 43 52 3 -2 -1 -12 -9 -21z m-5093 -1753 c-7 -11 43 -33 56 -25 6 4 8 3
5 -3 -3 -5 52 -33 124 -63 71 -29 127 -55 125 -57 -6 -6 -99 32 -254 103 -55
25 -78 40 -70 46 17 10 20 10 14 -1z m2414 -1 c-81 -20 -543 -60 -529 -46 3 3
77 10 165 16 87 6 200 17 249 24 50 8 104 14 120 14 29 0 29 0 -5 -8z m-635
-40 c86 -8 77 -8 -63 -4 -90 2 -171 8 -179 13 -16 9 68 6 242 -9z m-1315 -155
c178 -60 475 -137 574 -150 12 -1 49 -7 84 -14 114 -20 176 -30 237 -37 33 -3
62 -8 64 -10 27 -25 -454 56 -669 112 -169 45 -454 140 -430 143 3 0 66 -20
140 -44z m1920 -206 c-116 -17 -539 -40 -640 -35 -252 14 -301 19 -306 28 -4
6 1 8 12 5 59 -17 488 -25 634 -12 30 2 102 7 160 11 58 3 107 8 109 10 2 2
23 3 45 3 39 -1 38 -2 -14 -10z"/>
<path d="M4918 7929 c-201 -29 -419 -123 -584 -250 -71 -54 -203 -189 -258
-264 -219 -292 -300 -661 -226 -1019 45 -215 145 -417 296 -596 152 -180 361
-316 587 -379 139 -39 230 -51 385 -51 507 0 932 260 1154 705 159 318 181
686 61 1010 -112 303 -359 578 -649 723 -89 45 -262 100 -367 117 -98 16 -304
18 -399 4z m185 -6 c-7 -2 -21 -2 -30 0 -10 3 -4 5 12 5 17 0 24 -2 18 -5z
m75 0 c-10 -2 -28 -2 -40 0 -13 2 -5 4 17 4 22 1 32 -1 23 -4z m-233 -18 c-55
-7 -136 -23 -180 -35 -116 -32 -129 -34 -50 -5 85 31 200 53 275 53 44 0 35
-3 -45 -13z m399 0 c482 -84 889 -465 1018 -955 14 -53 21 -123 25 -241 6
-185 -4 -280 -43 -418 -25 -84 -83 -225 -91 -217 -2 2 9 32 25 67 68 151 102
316 102 502 0 205 -30 352 -103 512 -62 134 -167 294 -189 288 -4 -2 -8 4 -8
13 0 16 -117 136 -190 195 -155 123 -356 209 -580 249 -58 10 -93 19 -79 19
15 1 65 -6 113 -14z m-704 -74 c0 -4 -21 -16 -47 -26 -27 -10 -58 -25 -71 -33
-12 -8 -25 -12 -29 -9 -4 5 111 65 145 76 1 1 2 -3 2 -8z m-180 -89 c-118 -81
-230 -178 -227 -196 1 -6 -3 -10 -10 -9 -17 4 -104 -97 -169 -195 -138 -206
-204 -432 -204 -698 0 -527 362 -1032 855 -1190 80 -26 67 -32 -16 -8 -78 23
-253 115 -334 176 -233 176 -403 436 -487 746 -27 101 -35 386 -13 506 50 273
180 512 388 709 64 60 222 178 236 176 4 0 -5 -8 -19 -17z m1774 -1714 c-35
-70 -156 -227 -231 -299 -189 -185 -448 -305 -733 -339 -178 -22 -523 11 -487
46 3 4 12 2 19 -4 19 -15 58 -21 254 -38 70 -6 144 -1 312 21 19 2 48 9 65 14
18 6 65 20 104 32 44 13 70 26 66 32 -3 6 -1 7 6 3 6 -4 51 12 99 36 197 99
337 226 465 421 39 59 73 107 74 107 2 0 -4 -15 -13 -32z"/>
<path d="M4250 5085 c-109 -30 -349 -115 -441 -155 -477 -210 -815 -573 -915
-984 -39 -161 -49 -339 -37 -651 9 -226 14 -279 31 -325 67 -190 170 -278 422
-360 482 -159 1319 -242 2132 -212 478 18 733 45 1097 117 386 76 590 159 707
287 57 61 104 164 116 251 16 116 4 745 -16 837 -25 118 -53 197 -111 315
-134 273 -388 513 -710 670 -139 67 -216 97 -445 171 -198 65 -255 65 -430 6
-229 -77 -293 -87 -555 -86 -259 0 -308 8 -550 84 -151 48 -218 56 -295 35z
m265 -40 c230 -74 338 -95 515 -102 227 -8 395 19 664 108 144 48 194 42 541
-71 55 -18 123 -43 152 -56 28 -13 56 -24 60 -24 5 0 18 -7 29 -15 12 -10 -1
-7 -36 7 -30 12 -154 55 -275 96 -266 90 -324 97 -458 56 -45 -14 -91 -29
-102 -33 -155 -63 -506 -99 -705 -72 -98 13 -287 59 -394 96 -101 35 -190 42
-252 21 -26 -9 -57 -16 -68 -15 -12 1 4 9 34 19 88 30 168 25 295 -15z m-360
-15 c-3 -5 -13 -10 -21 -10 -9 0 -56 -14 -106 -31 -49 -17 -91 -29 -94 -27 -4
4 200 76 219 78 5 0 5 -4 2 -10z m-237 -76 c-4 -3 -59 -30 -123 -59 -144 -66
-296 -155 -288 -168 3 -6 1 -7 -5 -3 -5 3 -23 -4 -39 -17 -15 -13 -44 -33 -63
-46 l-35 -23 35 32 c60 54 190 136 317 200 128 63 218 102 201 84z m2652 -114
c33 -17 60 -33 60 -35 0 -5 -119 52 -129 61 -13 12 16 1 69 -26z m217 -137
c293 -212 484 -503 550 -838 24 -118 21 -805 -3 -880 -53 -162 -172 -272 -376
-346 -240 -86 -654 -165 -1093 -206 -274 -26 -1214 -26 -1485 0 -254 24 -294
29 -299 33 -8 7 63 4 144 -6 96 -11 154 -16 435 -31 244 -13 1008 -6 1130 11
41 5 113 12 160 15 165 10 582 77 775 126 154 39 316 97 380 137 117 73 170
138 210 255 24 74 25 79 26 418 0 265 -3 367 -15 445 -17 108 -65 268 -97 322
-10 18 -19 39 -19 45 0 38 -201 306 -223 299 -5 -1 -6 1 -3 6 3 5 -18 31 -47
59 -57 55 -207 168 -207 156 0 -4 -7 2 -15 13 -8 12 -28 27 -45 34 -16 7 -30
17 -30 22 0 14 35 -8 147 -89z m-3523 -166 c-56 -57 -92 -102 -88 -109 4 -6 3
-8 -3 -5 -13 8 -135 -167 -125 -178 4 -5 1 -5 -5 -1 -13 7 23 73 94 166 35 46
214 232 219 227 2 -1 -40 -47 -92 -100z m-273 -388 c-22 -46 -48 -118 -59
-159 -43 -165 -47 -215 -47 -532 0 -170 -3 -308 -7 -308 -5 0 -8 130 -8 289 0
318 14 444 66 599 28 84 83 206 90 199 2 -2 -14 -42 -35 -88z m-82 -1159 c24
-88 62 -149 135 -217 39 -36 60 -60 47 -53 -111 58 -214 246 -210 381 2 44 2
44 9 -11 4 -30 13 -75 19 -100z m391 -351 c163 -53 394 -106 610 -139 105 -16
109 -18 72 -19 -62 -2 -410 66 -567 110 -158 45 -295 100 -295 118 0 6 19 -1
43 -15 23 -13 85 -38 137 -55z"/>
</g>
</svg>
